<svg width="29" height="34" viewBox="0 0 29 34" fill="none" xmlns="http://www.w3.org/2000/svg">
<path d="M21.8101 12.25C21.8101 21.5775 7.81006 21.5775 7.81006 12.25H11.3101C11.3101 16.9225 18.3101 16.9225 18.3101 12.25M28.8101 28V33.25H0.810059V28C0.810059 23.3275 10.1376 21 14.8101 21C19.4826 21 28.8101 23.3275 28.8101 28ZM25.4851 28C25.4851 26.88 20.0076 24.325 14.8101 24.325C9.61256 24.325 4.13506 26.88 4.13506 28V29.925H25.4851M15.6851 0C16.1751 0 16.5601 0.385 16.5601 0.875V6.125H18.3101V1.75C19.5485 2.32317 20.5862 3.25534 21.2883 4.42555C21.9904 5.59576 22.3246 6.94999 22.2476 8.3125C22.2476 8.3125 23.4726 8.5575 23.5601 10.5H6.06006C6.06006 8.5575 7.37256 8.3125 7.37256 8.3125C7.29547 6.94999 7.62968 5.59576 8.33181 4.42555C9.03393 3.25534 10.0716 2.32317 11.3101 1.75V6.125H13.0601V0.875C13.0601 0.385 13.4451 0 13.9351 0" fill="#1AA0D6"/>
</svg>
