<svg width="34" height="34" viewBox="0 0 34 34" fill="none" xmlns="http://www.w3.org/2000/svg">
<path d="M0 5.525C0 4.05968 0.582096 2.65437 1.61823 1.61823C2.65437 0.582096 4.05968 0 5.525 0H23.375C24.8403 0 26.2456 0.582096 27.2818 1.61823C28.3179 2.65437 28.9 4.05968 28.9 5.525V13.6119C28.7585 13.6038 28.6168 13.5999 28.475 13.6H26.35V5.525C26.35 4.73598 26.0366 3.97928 25.4786 3.42136C24.9207 2.86344 24.164 2.55 23.375 2.55H5.525C4.73598 2.55 3.97928 2.86344 3.42136 3.42136C2.86344 3.97928 2.55 4.73598 2.55 5.525V25.075C2.55 26.7172 3.8828 28.05 5.525 28.05H6.8V28.475C6.8 29.2145 6.9105 29.9285 7.1179 30.6H5.525C4.05968 30.6 2.65437 30.0179 1.61823 28.9818C0.582096 27.9456 0 26.5403 0 25.075V5.525ZM8.075 5.1C7.73685 5.1 7.41255 5.23433 7.17344 5.47344C6.93433 5.71255 6.8 6.03685 6.8 6.375C6.8 6.71315 6.93433 7.03745 7.17344 7.27656C7.41255 7.51567 7.73685 7.65 8.075 7.65H20.825C21.1632 7.65 21.4875 7.51567 21.7266 7.27656C21.9657 7.03745 22.1 6.71315 22.1 6.375C22.1 6.03685 21.9657 5.71255 21.7266 5.47344C21.4875 5.23433 21.1632 5.1 20.825 5.1H8.075ZM10.2 10.625C10.2 10.2868 10.3343 9.96255 10.5734 9.72344C10.8125 9.48433 11.1368 9.35 11.475 9.35H20.825C21.1632 9.35 21.4875 9.48433 21.7266 9.72344C21.9657 9.96255 22.1 10.2868 22.1 10.625C22.1 10.9632 21.9657 11.2875 21.7266 11.5266C21.4875 11.7657 21.1632 11.9 20.825 11.9H11.475C11.1368 11.9 10.8125 11.7657 10.5734 11.5266C10.3343 11.2875 10.2 10.9632 10.2 10.625ZM8.5 20.825C8.5 19.3597 9.0821 17.9544 10.1182 16.9182C11.1544 15.8821 12.5597 15.3 14.025 15.3H28.475C29.2006 15.3 29.919 15.4429 30.5893 15.7206C31.2597 15.9982 31.8687 16.4052 32.3818 16.9182C32.8948 17.4313 33.3018 18.0404 33.5794 18.7107C33.8571 19.381 34 20.0994 34 20.825V28.475C34 29.2006 33.8571 29.919 33.5794 30.5893C33.3018 31.2597 32.8948 31.8687 32.3818 32.3818C31.8687 32.8948 31.2597 33.3018 30.5893 33.5794C29.919 33.8571 29.2006 34 28.475 34H14.025C13.2994 34 12.581 33.8571 11.9107 33.5794C11.2404 33.3018 10.6313 32.8948 10.1182 32.3818C9.60519 31.8687 9.19822 31.2597 8.92057 30.5893C8.64291 29.919 8.5 29.2006 8.5 28.475V20.825ZM14.025 17.85C13.1682 17.85 12.3947 18.2121 11.8524 18.7935L21.25 24.8336L30.6476 18.7935C30.3697 18.4954 30.0334 18.2578 29.6596 18.0955C29.2858 17.9332 28.8825 17.8496 28.475 17.85H14.025ZM11.05 28.475C11.05 30.1172 12.3828 31.45 14.025 31.45H28.475C29.264 31.45 30.0207 31.1366 30.5786 30.5786C31.1366 30.0207 31.45 29.264 31.45 28.475V21.3078L21.9402 27.4227C21.7344 27.5552 21.4948 27.6257 21.25 27.6257C21.0052 27.6257 20.7656 27.5552 20.5598 27.4227L11.05 21.3078V28.475Z" fill="#1AA0D6"/>
</svg>
