<svg width="27" height="28" viewBox="0 0 27 28" fill="none" xmlns="http://www.w3.org/2000/svg">
<path d="M14.8191 0V2.73376C20.7603 3.46457 24.9692 8.86441 24.2384 14.8056C23.6159 19.7318 19.7453 23.6429 14.8191 24.2249V26.9316C22.2625 26.1872 27.6759 19.5829 26.9316 12.1395C26.3226 5.71112 21.2205 0.636072 14.8191 0ZM12.1124 0.0406003C9.47342 0.297736 6.9562 1.31275 4.89911 3.01796L6.8344 5.02091C8.35014 3.8029 10.1772 3.01796 12.1124 2.74729V0.0406003ZM2.99089 4.92618C1.29875 6.97967 0.257409 9.49113 0 12.1395H2.70669C2.96383 10.2178 3.7217 8.39074 4.92618 6.86146L2.99089 4.92618ZM18.2025 8.75615L11.5982 15.3605L8.72908 12.4914L7.29453 13.9259L11.5982 18.2296L19.637 10.1907L18.2025 8.75615ZM0.0135334 14.8462C0.284203 17.4988 1.32628 20.0024 3.00443 22.0595L4.92618 20.1242C3.73108 18.5944 2.96918 16.7715 2.72022 14.8462H0.0135334ZM6.8344 22.1137L4.89911 23.9678C6.94913 25.6766 9.4589 26.7408 12.1124 27.0263V24.3196C10.1872 24.0707 8.36422 23.3088 6.8344 22.1137Z" fill="#1AA0D6"/>
</svg>
