<svg width="17" height="16" viewBox="0 0 17 16" fill="none" xmlns="http://www.w3.org/2000/svg">
<path d="M9.41225 0C10.3122 0.00239988 10.769 0.00719963 11.1634 0.0183991L11.3186 0.0239988C11.4977 0.0303984 11.6745 0.038398 11.8881 0.0479975C12.7393 0.0879955 13.3201 0.222389 13.8296 0.419979C14.3576 0.623168 14.8024 0.898354 15.2472 1.34233C15.6539 1.74223 15.9687 2.22596 16.1695 2.75986C16.3671 3.26943 16.5015 3.8502 16.5415 4.70216C16.5511 4.91495 16.5591 5.09174 16.5655 5.27173L16.5703 5.42692C16.5823 5.8205 16.5871 6.27728 16.5887 7.17723L16.5895 7.774V8.82195C16.5915 9.40544 16.5853 9.98894 16.5711 10.5723L16.5663 10.7275C16.5599 10.9074 16.5519 11.0842 16.5423 11.297C16.5023 12.149 16.3663 12.7289 16.1695 13.2393C15.9693 13.7735 15.6544 14.2574 15.2472 14.6569C14.8471 15.0635 14.3634 15.3782 13.8296 15.5792C13.3201 15.7768 12.7393 15.9112 11.8881 15.9512C11.6983 15.9601 11.5085 15.9681 11.3186 15.9752L11.1634 15.98C10.769 15.9912 10.3122 15.9968 9.41225 15.9984L8.81548 15.9992H7.76834C7.18458 16.0012 6.60082 15.9951 6.01723 15.9808L5.86204 15.976C5.67213 15.9688 5.48227 15.9605 5.29246 15.9512C4.44131 15.9112 3.86054 15.7768 3.35016 15.5792C2.81633 15.3787 2.33279 15.0639 1.93344 14.6569C1.52629 14.2571 1.21125 13.7733 1.01028 13.2393C0.812694 12.7297 0.678301 12.149 0.638303 11.297C0.62939 11.1072 0.621391 10.9173 0.614304 10.7275L0.610304 10.5723C0.595563 9.98894 0.588896 9.40545 0.590305 8.82195V7.17723C0.588073 6.59374 0.59394 6.01025 0.607904 5.42692L0.613504 5.27173C0.619904 5.09174 0.627903 4.91495 0.637503 4.70216C0.677501 3.8502 0.811894 3.27023 1.00948 2.75986C1.21036 2.22541 1.52603 1.74153 1.93424 1.34233C2.33349 0.935531 2.81671 0.620758 3.35016 0.419979C3.86054 0.222389 4.44051 0.0879955 5.29246 0.0479975C5.50525 0.038398 5.68284 0.0303984 5.86204 0.0239988L6.01723 0.019199C6.60055 0.00498591 7.18404 -0.0011477 7.76754 0.000799901L9.41225 0ZM8.5899 3.9998C7.52908 3.9998 6.51172 4.4212 5.76161 5.17131C5.01151 5.92142 4.5901 6.93878 4.5901 7.99959C4.5901 9.0604 5.01151 10.0778 5.76161 10.8279C6.51172 11.578 7.52908 11.9994 8.5899 11.9994C9.65071 11.9994 10.6681 11.578 11.4182 10.8279C12.1683 10.0778 12.5897 9.0604 12.5897 7.99959C12.5897 6.93878 12.1683 5.92142 11.4182 5.17131C10.6681 4.4212 9.65071 3.9998 8.5899 3.9998ZM8.5899 5.59971C8.90505 5.59966 9.21713 5.66168 9.50832 5.78224C9.79951 5.9028 10.0641 6.07953 10.287 6.30234C10.5099 6.52515 10.6867 6.78968 10.8073 7.08083C10.928 7.37197 10.9901 7.68404 10.9902 7.99919C10.9902 8.31435 10.9282 8.62643 10.8076 8.91761C10.6871 9.2088 10.5104 9.47339 10.2875 9.69628C10.0647 9.91916 9.8002 10.096 9.50906 10.2166C9.21791 10.3373 8.90585 10.3994 8.5907 10.3995C7.95421 10.3995 7.34379 10.1466 6.89373 9.69656C6.44366 9.2465 6.19082 8.63608 6.19082 7.99959C6.19082 7.3631 6.44366 6.75269 6.89373 6.30262C7.34379 5.85256 7.95421 5.59971 8.5907 5.59971M12.7905 2.79986C12.5253 2.79986 12.2709 2.90521 12.0834 3.09274C11.8959 3.28026 11.7905 3.5346 11.7905 3.79981C11.7905 4.06501 11.8959 4.31935 12.0834 4.50688C12.2709 4.6944 12.5253 4.79975 12.7905 4.79975C13.0557 4.79975 13.31 4.6944 13.4976 4.50688C13.6851 4.31935 13.7904 4.06501 13.7904 3.79981C13.7904 3.5346 13.6851 3.28026 13.4976 3.09274C13.31 2.90521 13.0557 2.79986 12.7905 2.79986Z" fill="white"/>
</svg>
