<svg width="13" height="15" viewBox="0 0 13 15" fill="none" xmlns="http://www.w3.org/2000/svg">
<path d="M6.79883 0C5.20811 0.00184311 3.68307 0.623288 2.55826 1.72801C1.43345 2.83274 0.800711 4.33054 0.798835 5.89286C0.796929 7.16958 1.22155 8.41167 2.00756 9.42857C2.00756 9.42857 2.1712 9.64018 2.19792 9.67071L6.79883 15L11.4019 9.66804C11.4259 9.63964 11.5901 9.42857 11.5901 9.42857L11.5906 9.42696C12.3763 8.41051 12.8007 7.169 12.7988 5.89286C12.7969 4.33054 12.1642 2.83274 11.0394 1.72801C9.91458 0.623288 8.38955 0.00184311 6.79883 0ZM6.79883 8.03571C6.36731 8.03571 5.94547 7.91004 5.58668 7.67458C5.22788 7.43912 4.94823 7.10445 4.78309 6.71289C4.61796 6.32134 4.57475 5.89048 4.65894 5.47481C4.74312 5.05913 4.95092 4.67731 5.25605 4.37763C5.56118 4.07794 5.94995 3.87386 6.37318 3.79117C6.79641 3.70849 7.2351 3.75093 7.63377 3.91312C8.03245 4.0753 8.3732 4.34996 8.61294 4.70235C8.85268 5.05474 8.98064 5.46904 8.98064 5.89286C8.97992 6.46096 8.74982 7.00559 8.34081 7.4073C7.93179 7.80901 7.37726 8.03501 6.79883 8.03571Z" fill="white"/>
</svg>
