<svg width="32" height="35" viewBox="0 0 32 35" fill="none" xmlns="http://www.w3.org/2000/svg">
<path d="M23.7772 26.8894C23.7772 26.0643 23.4495 25.273 22.866 24.6895C22.2826 24.1061 21.4912 23.7783 20.6661 23.7783H11.3328C10.5077 23.7783 9.71635 24.1061 9.1329 24.6895C8.54946 25.273 8.22168 26.0643 8.22168 26.8894" stroke="#1AA0D6" stroke-width="3" stroke-linecap="round" stroke-linejoin="round"/>
<path d="M26.8889 5.11328H5.11111C3.39289 5.11328 2 6.50617 2 8.22439V30.0022C2 31.7204 3.39289 33.1133 5.11111 33.1133H26.8889C28.6071 33.1133 30 31.7204 30 30.0022V8.22439C30 6.50617 28.6071 5.11328 26.8889 5.11328Z" stroke="#1AA0D6" stroke-width="3" stroke-linecap="round" stroke-linejoin="round"/>
<path d="M16.0003 17.5572C17.7185 17.5572 19.1114 16.1643 19.1114 14.4461C19.1114 12.7279 17.7185 11.335 16.0003 11.335C14.2821 11.335 12.8892 12.7279 12.8892 14.4461C12.8892 16.1643 14.2821 17.5572 16.0003 17.5572Z" stroke="#1AA0D6" stroke-width="3" stroke-linecap="round" stroke-linejoin="round"/>
<path d="M9.77832 2V5.11111M22.2228 2V5.11111" stroke="#1AA0D6" stroke-width="3" stroke-linecap="round" stroke-linejoin="round"/>
</svg>
