<svg width="13" height="12" viewBox="0 0 13 12" fill="none" xmlns="http://www.w3.org/2000/svg">
<path d="M3.21216 5.19333C4.17216 7.08 5.71883 8.62 7.60549 9.58667L9.07216 8.12C9.25216 7.94 9.51883 7.88 9.75216 7.96C10.4988 8.20667 11.3055 8.34 12.1322 8.34C12.4988 8.34 12.7988 8.64 12.7988 9.00667V11.3333C12.7988 11.7 12.4988 12 12.1322 12C5.87216 12 0.798828 6.92667 0.798828 0.666667C0.798828 0.3 1.09883 0 1.46549 0H3.79883C4.16549 0 4.46549 0.3 4.46549 0.666667C4.46549 1.5 4.59883 2.3 4.84549 3.04667C4.91883 3.28 4.86549 3.54 4.67883 3.72667L3.21216 5.19333Z" fill="white"/>
</svg>
