<svg width="29" height="34" viewBox="0 0 29 34" fill="none" xmlns="http://www.w3.org/2000/svg">
<path d="M8.28571 9.58035V6.99107C8.28571 6.56384 8.63527 6.21428 9.0625 6.21428H11.6518C12.079 6.21428 12.4286 6.56384 12.4286 6.99107V9.58035C12.4286 10.0076 12.079 10.3571 11.6518 10.3571H9.0625C8.63527 10.3571 8.28571 10.0076 8.28571 9.58035ZM17.3482 10.3571H19.9375C20.3647 10.3571 20.7143 10.0076 20.7143 9.58035V6.99107C20.7143 6.56384 20.3647 6.21428 19.9375 6.21428H17.3482C16.921 6.21428 16.5714 6.56384 16.5714 6.99107V9.58035C16.5714 10.0076 16.921 10.3571 17.3482 10.3571ZM9.0625 16.5714H11.6518C12.079 16.5714 12.4286 16.2219 12.4286 15.7946V13.2054C12.4286 12.7781 12.079 12.4286 11.6518 12.4286H9.0625C8.63527 12.4286 8.28571 12.7781 8.28571 13.2054V15.7946C8.28571 16.2219 8.63527 16.5714 9.0625 16.5714ZM17.3482 16.5714H19.9375C20.3647 16.5714 20.7143 16.2219 20.7143 15.7946V13.2054C20.7143 12.7781 20.3647 12.4286 19.9375 12.4286H17.3482C16.921 12.4286 16.5714 12.7781 16.5714 13.2054V15.7946C16.5714 16.2219 16.921 16.5714 17.3482 16.5714ZM12.4286 22.0089V19.4196C12.4286 18.9924 12.079 18.6428 11.6518 18.6428H9.0625C8.63527 18.6428 8.28571 18.9924 8.28571 19.4196V22.0089C8.28571 22.4361 8.63527 22.7857 9.0625 22.7857H11.6518C12.079 22.7857 12.4286 22.4361 12.4286 22.0089ZM17.3482 22.7857H19.9375C20.3647 22.7857 20.7143 22.4361 20.7143 22.0089V19.4196C20.7143 18.9924 20.3647 18.6428 19.9375 18.6428H17.3482C16.921 18.6428 16.5714 18.9924 16.5714 19.4196V22.0089C16.5714 22.4361 16.921 22.7857 17.3482 22.7857ZM29 30.8125V33.1428H0V30.8125C0 30.3853 0.349554 30.0357 0.776786 30.0357H2.03906V1.55357C2.03906 0.692634 2.7317 0 3.59263 0H25.4074C26.2683 0 26.9609 0.692634 26.9609 1.55357V30.0357H28.2232C28.6504 30.0357 29 30.3853 29 30.8125ZM5.14621 29.971H12.4286V25.6339C12.4286 25.2067 12.7781 24.8571 13.2054 24.8571H15.7946C16.2219 24.8571 16.5714 25.2067 16.5714 25.6339V29.971H23.8538V3.17187L5.17857 3.10714L5.14621 29.971Z" fill="#1AA0D6"/>
</svg>
