<svg width="30" height="29" viewBox="0 0 30 29" fill="none" xmlns="http://www.w3.org/2000/svg">
<path d="M17.7015 19.0293L20.9152 15.8157L30 24.9006L26.7864 28.1142L17.7015 19.0293ZM23.3333 11.193C26.2576 11.193 28.6364 8.81418 28.6364 5.88994C28.6364 5.01115 28.3939 4.19297 28.0152 3.4657L23.9242 7.55661L21.6667 5.29903L25.7576 1.20812C25.0303 0.829334 24.2121 0.586909 23.3333 0.586909C20.4091 0.586909 18.0303 2.9657 18.0303 5.88994C18.0303 6.51115 18.1515 7.10206 18.3485 7.64752L15.5455 10.4505L12.8485 7.75358L13.9242 6.67782L11.7879 4.54146L15 1.32933C14.1477 0.478119 12.9924 0 11.7879 0C10.5833 0 9.42803 0.478119 8.57576 1.32933L3.21212 6.69297L5.34849 8.82933H1.07576L0 9.90509L5.36364 15.2687L6.43939 14.193V9.90509L8.57576 12.0415L9.65152 10.9657L12.3485 13.6627L1.12121 24.8899L4.33333 28.1021L21.5758 10.8748C22.1212 11.0718 22.7121 11.193 23.3333 11.193Z" fill="#1AA0D6"/>
</svg>
