<svg width="33" height="33" viewBox="0 0 33 33" fill="none" xmlns="http://www.w3.org/2000/svg">
<path d="M2.54339e-06 5.95833C2.54339e-06 4.37808 0.627753 2.86256 1.74516 1.74516C2.86256 0.627751 4.37809 0 5.95834 0H27.0417C28.6219 0 30.1374 0.627751 31.2548 1.74516C32.3722 2.86256 33 4.37808 33 5.95833V27.0417C33 28.6219 32.3722 30.1374 31.2548 31.2548C30.1374 32.3722 28.6219 33 27.0417 33H20.559C21.3033 32.208 21.8992 31.2767 22.3062 30.25H27.0417C27.8926 30.25 28.7086 29.912 29.3103 29.3103C29.912 28.7086 30.25 27.8926 30.25 27.0417V5.95833C30.25 5.10743 29.912 4.29138 29.3103 3.6897C28.7086 3.08802 27.8926 2.75 27.0417 2.75H5.95834C5.10743 2.75 4.29138 3.08802 3.6897 3.6897C3.08802 4.29138 2.75 5.10743 2.75 5.95833V10.6938C1.73164 11.0981 0.798671 11.6909 2.54339e-06 12.441V5.95833ZM19.2317 30.25C18.6931 31.0938 17.9505 31.7881 17.0724 32.2688C16.1944 32.7494 15.2093 33.0009 14.2083 33H5.95834C4.37809 33 2.86256 32.3722 1.74516 31.2548C0.627753 30.1374 2.54339e-06 28.6219 2.54339e-06 27.0417V18.7917C-0.000720917 18.009 0.152902 17.2339 0.45208 16.5107C0.751258 15.7874 1.19012 15.1303 1.74354 14.5769C2.29697 14.0234 2.9541 13.5846 3.67732 13.2854C4.40055 12.9862 5.17567 12.8326 5.95834 12.8333H14.2083C14.9908 12.8333 15.7656 12.9874 16.4885 13.2869C17.2114 13.5863 17.8682 14.0252 18.4215 14.5785C18.9748 15.1318 19.4137 15.7886 19.7131 16.5115C20.0125 17.2344 20.1667 18.0092 20.1667 18.7917V27.0417C20.1667 28.2223 19.8238 29.3242 19.2317 30.25ZM2.75 18.7917V27.0417C2.75 28.8127 4.18734 30.25 5.95834 30.25H14.2083C15.0592 30.25 15.8753 29.912 16.477 29.3103C17.0786 28.7086 17.4167 27.8926 17.4167 27.0417V18.7917C17.4167 17.9408 17.0786 17.1247 16.477 16.523C15.8753 15.9214 15.0592 15.5833 14.2083 15.5833H5.95834C5.10743 15.5833 4.29138 15.9214 3.6897 16.523C3.08802 17.1247 2.75 17.9408 2.75 18.7917Z" fill="#1AA0D6"/>
</svg>
