<svg width="34" height="24" viewBox="0 0 34 24" fill="none" xmlns="http://www.w3.org/2000/svg">
<path fill-rule="evenodd" clip-rule="evenodd" d="M26.0005 -0.000366211C26.3679 -0.000317745 26.7225 0.134568 26.9971 0.378706C27.2716 0.622845 27.447 0.959257 27.49 1.32413L27.5005 1.49963V3.84713L27.6745 3.99863L28.09 4.34513C28.165 4.40813 28.246 4.47113 28.327 4.53413C29.1265 5.15663 30.0925 5.78213 30.9745 6.07613C31.1615 6.13838 31.3343 6.23684 31.4832 6.36588C31.6321 6.49493 31.7541 6.65204 31.8423 6.82824C31.9304 7.00444 31.983 7.19628 31.9971 7.3928C32.0111 7.58933 31.9863 7.7867 31.924 7.97363C31.8618 8.16057 31.7633 8.33342 31.6343 8.4823C31.5052 8.63119 31.3481 8.7532 31.1719 8.84137C30.9957 8.92954 30.8039 8.98214 30.6074 8.99617C30.4108 9.0102 30.2135 8.98538 30.0265 8.92313C29.2736 8.66037 28.5538 8.31103 27.8815 7.88213L27.5005 7.63613V14.9996H32.0005C32.3829 15.0001 32.7506 15.1465 33.0286 15.4089C33.3066 15.6714 33.4739 16.0301 33.4963 16.4117C33.5187 16.7934 33.3945 17.1692 33.1491 17.4624C32.9038 17.7556 32.5557 17.944 32.176 17.9891L32.0005 17.9996H27.5005V22.4996C27.5001 22.882 27.3537 23.2497 27.0913 23.5277C26.8288 23.8057 26.4701 23.973 26.0884 23.9954C25.7068 24.0178 25.331 23.8936 25.0378 23.6482C24.7446 23.4029 24.5562 23.0548 24.511 22.6751L24.5005 22.4996V17.9996H9.50054V22.4996C9.50011 22.882 9.35372 23.2497 9.09126 23.5277C8.82881 23.8057 8.47011 23.973 8.08844 23.9954C7.70678 24.0178 7.33097 23.8936 7.03779 23.6482C6.74461 23.4029 6.55619 23.0548 6.51103 22.6751L6.50054 22.4996V17.9996H2.00054C1.61822 17.9992 1.25049 17.8528 0.972483 17.5904C0.694479 17.3279 0.527183 16.9692 0.504777 16.5875C0.482372 16.2059 0.606547 15.8301 0.851933 15.5369C1.09732 15.2437 1.44539 15.0553 1.82504 15.0101L2.00054 14.9996H6.50054V7.63463C5.75654 8.13113 4.88353 8.62013 3.97453 8.92313C3.7876 8.98538 3.59023 9.0102 3.3937 8.99617C3.19718 8.98214 3.00534 8.92954 2.82914 8.84137C2.47329 8.6633 2.20275 8.35117 2.07704 7.97363C1.95132 7.5961 1.98073 7.18409 2.1588 6.82824C2.33687 6.47239 2.649 6.20185 3.02654 6.07613C3.90854 5.78213 4.87453 5.15663 5.67403 4.53413L5.91103 4.34513L6.32653 3.99863L6.50054 3.84713V1.49963C6.50096 1.11731 6.64735 0.749585 6.90981 0.471581C7.17226 0.193577 7.53096 0.0262817 7.91263 0.00387597C8.29429 -0.0185297 8.6701 0.105646 8.96328 0.351031C9.25646 0.596416 9.44488 0.94449 9.49004 1.32413L9.50054 1.49963V4.08263C9.89454 4.64624 10.3679 5.14995 10.906 5.57813C12.0655 6.50663 13.99 7.49963 17.0005 7.49963C20.011 7.49963 21.9355 6.50663 23.095 5.57963C23.6845 5.10713 24.091 4.64063 24.343 4.30313L24.5005 4.08263V1.49963C24.5005 1.10181 24.6586 0.720278 24.9399 0.438974C25.2212 0.157669 25.6027 -0.000366211 26.0005 -0.000366211ZM24.5005 8.27513C23.7271 8.82558 22.8875 9.27661 22.0015 9.61763L21.5005 9.79913V14.9996H24.5005V8.27513ZM18.5005 10.4291C17.6644 10.5093 16.8232 10.5223 15.985 10.4681L15.5005 10.4291V14.9996H18.5005V10.4291ZM9.50054 8.27513V14.9996H12.5005V9.79913L11.9995 9.61913C11.2487 9.32922 10.5307 8.96067 9.85753 8.51963L9.50054 8.27513Z" fill="#1AA0D6"/>
</svg>
